HIERARCHY
ROOT Hips
{
 OFFSET 0.000000 0.000000 0.000000
 CHANNELS 6 Xposition Yposition Zposition Yrotation Xrotation Zrotation
 JOINT Chest
 {
  OFFSET 0.000000 9.585900 0.002600
  CHANNELS 3 Yrotation Xrotation Zrotation
  JOINT Chest2
  {
   OFFSET 0.000000 9.601200 -0.005300
   CHANNELS 3 Yrotation Xrotation Zrotation
   JOINT Chest3
   {
    OFFSET 0.000000 9.561800 0.000000
    CHANNELS 3 Yrotation Xrotation Zrotation
    JOINT Chest4
    {
     OFFSET 0.000000 9.552100 0.000000
     CHANNELS 3 Yrotation Xrotation Zrotation
     JOINT Neck
     {
      OFFSET 0.000000 14.453000 0.000000
      CHANNELS 3 Yrotation Xrotation Zrotation
      JOINT Head
      {
       OFFSET 0.000000 8.936500 -0.011300
       CHANNELS 3 Yrotation Xrotation Zrotation
       End Site
       {
        OFFSET 0.000000 17.073600 -0.006000
       }
      }
     }
     JOINT RightCollar
     {
      OFFSET -2.921100 9.558500 0.000000
      CHANNELS 3 Yrotation Xrotation Zrotation
      JOINT RightShoulder
      {
       OFFSET -13.519700 0.000000 0.000000
       CHANNELS 3 Yrotation Xrotation Zrotation
       JOINT RightElbow
       {
        OFFSET 0.000000 -29.696600 0.000000
        CHANNELS 3 Yrotation Xrotation Zrotation
        JOINT RightWrist
        {
         OFFSET 0.000000 -24.004700 0.000000
         CHANNELS 3 Yrotation Xrotation Zrotation
         End Site
         {
          OFFSET 0.000000 -17.728500 0.000000
         }
        }
       }
      }
     }
     JOINT LeftCollar
     {
      OFFSET 2.921100 9.558500 0.000000
      CHANNELS 3 Yrotation Xrotation Zrotation
      JOINT LeftShoulder
      {
       OFFSET 13.519700 0.000000 0.000000
       CHANNELS 3 Yrotation Xrotation Zrotation
       JOINT LeftElbow
       {
        OFFSET 0.000000 -29.696600 0.000000
        CHANNELS 3 Yrotation Xrotation Zrotation
        JOINT LeftWrist
        {
         OFFSET 0.000000 -24.004700 0.000000
         CHANNELS 3 Yrotation Xrotation Zrotation
         End Site
         {
          OFFSET 0.000000 -17.728500 0.000000
         }
        }
       }
      }
     }
    }
   }
  }
 }
 JOINT RightHip
 {
  OFFSET -7.771700 -0.012900 -0.001300
  CHANNELS 3 Yrotation Xrotation Zrotation
  JOINT RightKnee
  {
   OFFSET 0.000000 -40.869800 0.001200
   CHANNELS 3 Yrotation Xrotation Zrotation
   JOINT RightAnkle
   {
    OFFSET 0.000000 -39.717900 0.002100
    CHANNELS 3 Yrotation Xrotation Zrotation
    JOINT RightToe
    {
     OFFSET 0.000000 -4.965400 11.033500
     CHANNELS 3 Yrotation Xrotation Zrotation
     End Site
     {
      OFFSET 0.000000 -1.423100 5.872300
     }
    }
   }
  }
 }
 JOINT LeftHip
 {
  OFFSET 7.771700 -0.012900 -0.001300
  CHANNELS 3 Yrotation Xrotation Zrotation
  JOINT LeftKnee
  {
   OFFSET 0.000000 -40.869800 0.001200
   CHANNELS 3 Yrotation Xrotation Zrotation
   JOINT LeftAnkle
   {
    OFFSET 0.000000 -39.717900 0.002100
    CHANNELS 3 Yrotation Xrotation Zrotation
    JOINT LeftToe
    {
     OFFSET 0.000000 -4.965400 11.033500
     CHANNELS 3 Yrotation Xrotation Zrotation
     End Site
     {
      OFFSET 0.000000 -1.423100 5.872300
     }
    }
   }
  }
 }
}
MOTION
Frames: 8
Frame Time: 0.008333
0.000000 85.388000 0.000000 0.000000 -5.767877 0.000000 0.000000 11.653817 0.000000 0.000000 -5.885947 0.000000 0.000000 -0.000000 0.000000 0.000000 -0.000000 0.000000 0.000000 12.528835 0.000000 0.000000 0.711642 0.000000 0.000000 -0.000000 0.000000 0.000000 0.000000 -90.000000 0.000000 -2.309062 0.000000 0.000000 2.309062 0.000000 0.000000 -0.000000 0.000000 0.000000 -0.000000 90.000000 0.000000 -2.309062 0.000000 0.000000 2.309062 0.000000 0.000000 8.520406 0.000000 0.000000 1.905762 0.000000 -0.000000 -4.658285 0.000000 0.000000 -0.000000 0.000000 0.000000 8.520406 0.000000 0.000000 1.905762 0.000000 -0.000000 -4.658285 0.000000 0.000000 -0.000000 0.000000
-36.087280 55.391075 41.572799 -178.474640 -27.038150 -11.277365 -0.595159 9.529683 5.344814 -0.280633 5.467282 1.788032 -0.324832 6.863551 2.235082 -0.282240 5.482090 1.790857 3.368691 20.663617 3.420034 2.845675 -3.565847 2.870939 -2.397523 1.197443 -4.089159 -20.815289 -6.686990 5.691680 -56.956003 -49.722309 66.651192 -0.031903 -5.324979 -9.118963 -7.568512 2.968922 -2.630812 11.499313 -4.597457 2.081069 22.750328 -81.195999 -16.485067 19.661872 -8.176306 0.613412 -20.948761 -38.422023 7.160146 33.790183 85.259466 28.670762 0.107850 -18.172672 2.760586 -0.821990 1.639640 -0.349394 -18.700259 -50.639113 17.403238 167.026618 79.416896 162.336469 -1.421236 -15.528102 1.402500 -0.924705 -2.618683 -0.469437
-36.088163 55.391864 41.572192 -178.457159 -27.122721 -11.268337 -0.591768 9.610980 5.322648 -0.282307 5.481978 1.790564 -0.310301 6.951803 2.225948 -0.274529 5.529232 1.786999 3.366307 20.573701 3.419014 2.847651 -3.548432 2.845383 -2.417187 1.184123 -4.037325 -20.689553 -6.592543 5.705641 -55.967542 -50.703895 65.849399 0.237665 -5.175211 -9.370886 -7.591172 3.032040 -2.643582 11.402121 -4.497725 2.020881 19.876713 -81.363345 -13.621934 19.420085 -8.179701 0.500688 -20.897483 -38.352798 7.114215 33.614161 85.281612 28.479163 0.097732 -18.161006 2.782065 -0.818937 1.619254 -0.347980 -18.798438 -50.534791 17.432246 167.080096 79.420855 162.312959 -1.417140 -15.510578 1.376387 -0.916259 -2.629711 -0.455286
-36.090447 55.389671 41.577729 -178.441268 -27.173933 -11.248275 -0.601989 9.655293 5.290987 -0.273632 5.529182 1.787326 -0.300760 7.011347 2.223665 -0.268224 5.576465 1.783229 3.370315 20.624114 3.381972 2.846011 -3.692495 2.855295 -2.425887 1.176342 -3.984554 -20.557189 -6.494272 5.725629 -54.940503 -51.748163 64.995039 0.546881 -4.986345 -9.655373 -7.601542 3.103648 -2.659310 11.315217 -4.407468 1.950312 16.588527 -81.526863 -10.347894 19.207154 -8.192231 0.365043 -20.830188 -38.334284 7.082405 33.079322 85.336115 27.930411 0.074904 -18.122853 2.820609 -0.794295 1.573011 -0.338217 -18.846973 -50.476818 17.424067 167.111212 79.433390 162.305767 -1.432763 -15.505162 1.345462 -0.889834 -2.620095 -0.433654
-36.090109 55.391743 41.577440 -178.415004 -27.268372 -11.250748 -0.601206 9.735384 5.281305 -0.272419 5.585129 1.785526 -0.292729 7.068807 2.217047 -0.262272 5.623363 1.780065 3.362385 20.616189 3.352969 2.841378 -3.763798 2.838518 -2.431143 1.178726 -3.931070 -20.407698 -6.399731 5.754899 -53.905567 -52.780836 64.111534 0.864570 -4.771397 -9.925390 -7.607137 3.185476 -2.673671 11.241358 -4.326952 1.868883 13.094389 -81.669163 -6.880850 19.041951 -8.206181 0.213507 -20.788093 -38.244697 7.026733 32.937536 85.345453 27.786913 0.070281 -18.122880 2.829229 -0.787763 1.565930 -0.337611 -18.862875 -50.373546 17.396984 167.110457 79.441697 162.283326 -1.444078 -15.500104 1.333941 -0.877366 -2.619272 -0.421444
-36.089684 55.395051 41.576486 -178.389850 -27.367059 -11.256019 -0.597857 9.827427 5.271339 -0.271512 5.632116 1.783825 -0.279149 7.128871 2.213282 -0.255891 5.670851 1.777897 3.348112 20.575901 3.328082 2.828398 -3.794105 2.802272 -2.441077 1.186171 -3.876568 -20.241504 -6.312716 5.796118 -52.891708 -53.729911 63.230992 1.178930 -4.548792 -10.149009 -7.612877 3.268575 -2.684374 11.197022 -4.252282 1.780003 9.676926 -81.775342 -3.527807 18.930315 -8.227912 0.057816 -20.752490 -38.149057 6.974041 32.804370 85.353646 27.649756 0.068203 -18.117620 2.836614 -0.779975 1.554351 -0.337025 -18.863934 -50.270159 17.361569 167.068985 79.445312 162.229198 -1.450620 -15.487367 1.316599 -0.869898 -2.626478 -0.416731
-36.091175 55.399654 41.574105 -178.353009 -27.469133 -11.259474 -0.599933 9.927230 5.254156 -0.268952 5.674630 1.782998 -0.268319 7.198502 2.209442 -0.249873 5.720620 1.775976 3.328915 20.529165 3.301711 2.812945 -3.849095 2.777514 -2.455129 1.190469 -3.820982 -20.074285 -6.233177 5.851821 -51.926521 -54.549869 62.384364 1.483849 -4.332205 -10.303885 -7.611296 3.338324 -2.689678 11.186585 -4.183678 1.684988 6.617084 -81.842187 -0.586090 18.853721 -8.258164 -0.082732 -20.714553 -38.055177 6.912104 32.391917 85.384082 27.232106 0.086334 -18.098467 2.848405 -0.767008 1.524116 -0.330653 -18.845769 -50.170857 17.299049 166.976160 79.443420 162.135066 -1.464516 -15.462739 1.301472 -0.863608 -2.645590 -0.411900
-36.089447 55.403232 41.576579 -178.334570 -27.537477 -11.278538 -0.583493 9.995048 5.264315 -0.268671 5.719415 1.777939 -0.255102 7.274269 2.210264 -0.244004 5.774169 1.774226 3.304020 20.475847 3.273415 2.809517 -3.943557 2.778561 -2.473086 1.190465 -3.768549 -19.925146 -6.162494 5.921294 -51.018451 -55.222861 61.593339 1.752476 -4.138883 -10.374260 -7.601471 3.387556 -2.690550 11.177790 -4.121804 1.581797 4.092020 -81.885708 1.796514 18.784012 -8.288651 -0.188820 -20.695303 -37.976368 6.886222 32.230209 85.377812 27.074649 0.087586 -18.104955 2.849372 -0.768291 1.530539 -0.331044 -18.843738 -50.104776 17.281991 166.861900 79.438498 162.027676 -1.467217 -15.444041 1.294440 -0.873190 -2.658316 -0.413105
